<svg viewBox="0 0 18 18" fill="none" xmlns="http://www.w3.org/2000/svg" x="0" y="0"><defs><clipPath id="clip2_37_11">
<rect width="18" height="18" fill="white" transform="translate(0, 0)"/>
</clipPath></defs><g id="Icon" clip-path="url(#clip2_37_11)">
<path id="Vector" d="M8.25,1.5v1.5" stroke="white" stroke-width="1.5" stroke-linecap="round" stroke-linejoin="round"/>
<path id="Vector_2" d="M3.75,1.5v1.5" stroke="white" stroke-width="1.5" stroke-linecap="round" stroke-linejoin="round"/>
<path id="Vector_3" d="M3.75,2.25h-0.75c-0.3978,0 -0.7794,0.158 -1.0607,0.4393c-0.2813,0.2813 -0.4393,0.6629 -0.4393,1.0607v3c0,1.1935 0.4741,2.3381 1.318,3.182c0.8439,0.8439 1.9885,1.318 3.182,1.318c1.1935,0 2.3381,-0.4741 3.182,-1.318c0.8439,-0.8439 1.318,-1.9885 1.318,-3.182v-3c0,-0.3978 -0.1581,-0.7794 -0.4394,-1.0607c-0.2813,-0.2813 -0.6628,-0.4393 -1.0606,-0.4393h-0.75" stroke="white" stroke-width="1.5" stroke-linecap="round" stroke-linejoin="round"/>
<path id="Vector_4" d="M6,11.25c0,1.1935 0.4741,2.3381 1.318,3.182c0.8439,0.8439 1.9885,1.318 3.182,1.318c1.1935,0 2.3381,-0.4741 3.182,-1.318c0.8439,-0.8439 1.318,-1.9885 1.318,-3.182v-2.25" stroke="white" stroke-width="1.5" stroke-linecap="round" stroke-linejoin="round"/>
<path id="Vector_5" d="M15,9c0.8284,0 1.5,-0.6716 1.5,-1.5c0,-0.8284 -0.6716,-1.5 -1.5,-1.5c-0.8284,0 -1.5,0.6716 -1.5,1.5c0,0.8284 0.6716,1.5 1.5,1.5z" stroke="white" stroke-width="1.5" stroke-linecap="round" stroke-linejoin="round"/>
</g></svg>