<svg viewBox="0 0 19.9922 19.9922" fill="none" xmlns="http://www.w3.org/2000/svg" x="0" y="0"><g id="Icon_2">
<path id="Vector_6" d="M7.497,2.4991h-4.165c-0.4601,0 -0.833,0.373 -0.833,0.833v5.831c0,0.46 0.3729,0.833 0.833,0.833h4.165c0.4601,0 0.833,-0.373 0.833,-0.833v-5.831c0,-0.46 -0.3729,-0.833 -0.833,-0.833z" stroke="white" stroke-width="1.66602" stroke-linecap="round" stroke-linejoin="round"/>
<path id="Vector_7" d="M16.6601,2.4991h-4.165c-0.4601,0 -0.833,0.373 -0.833,0.833v2.499c0,0.46 0.3729,0.833 0.833,0.833h4.165c0.4601,0 0.833,-0.373 0.833,-0.833v-2.499c0,-0.46 -0.3729,-0.833 -0.833,-0.833z" stroke="white" stroke-width="1.66602" stroke-linecap="round" stroke-linejoin="round"/>
<path id="Vector_8" d="M16.6601,9.9961h-4.165c-0.4601,0 -0.833,0.373 -0.833,0.833v5.831c0,0.46 0.3729,0.833 0.833,0.833h4.165c0.4601,0 0.833,-0.373 0.833,-0.833v-5.831c0,-0.46 -0.3729,-0.833 -0.833,-0.833z" stroke="white" stroke-width="1.66602" stroke-linecap="round" stroke-linejoin="round"/>
<path id="Vector_9" d="M7.497,13.3281h-4.165c-0.4601,0 -0.833,0.373 -0.833,0.833v2.499c0,0.46 0.3729,0.833 0.833,0.833h4.165c0.4601,0 0.833,-0.373 0.833,-0.833v-2.499c0,-0.46 -0.3729,-0.833 -0.833,-0.833z" stroke="white" stroke-width="1.66602" stroke-linecap="round" stroke-linejoin="round"/>
</g></svg>