<svg viewBox="0 0 19.9922 19.9922" fill="none" xmlns="http://www.w3.org/2000/svg" x="0" y="0"><g id="Icon_3">
<path id="Vector_10" d="M8.33,12.4955h-3.332c-0.8837,0 -1.7312,0.351 -2.3561,0.976c-0.6249,0.624 -0.9759,1.472 -0.9759,2.356v1.666" stroke="#D1D5DB" stroke-width="1.66602" stroke-linecap="round" stroke-linejoin="round"/>
<path id="Vector_11" d="M11.9161,13.7695l0.7689,-0.318" stroke="#D1D5DB" stroke-width="1.66602" stroke-linecap="round" stroke-linejoin="round"/>
<path id="Vector_12" d="M12.685,11.5385l-0.7689,-0.319" stroke="#D1D5DB" stroke-width="1.66602" stroke-linecap="round" stroke-linejoin="round"/>
<path id="Vector_13" d="M14.0378,10.1865l-0.3191,-0.769" stroke="#D1D5DB" stroke-width="1.66602" stroke-linecap="round" stroke-linejoin="round"/>
<path id="Vector_14" d="M14.0378,14.8045l-0.3191,0.769" stroke="#D1D5DB" stroke-width="1.66602" stroke-linecap="round" stroke-linejoin="round"/>
<path id="Vector_15" d="M15.9504,10.1865l0.319,-0.769" stroke="#D1D5DB" stroke-width="1.66602" stroke-linecap="round" stroke-linejoin="round"/>
<path id="Vector_16" d="M16.2686,15.5735l-0.3182,-0.769" stroke="#D1D5DB" stroke-width="1.66602" stroke-linecap="round" stroke-linejoin="round"/>
<path id="Vector_17" d="M17.3032,11.5385l0.7697,-0.319" stroke="#D1D5DB" stroke-width="1.66602" stroke-linecap="round" stroke-linejoin="round"/>
<path id="Vector_18" d="M17.3032,13.4515l0.7697,0.319" stroke="#D1D5DB" stroke-width="1.66602" stroke-linecap="round" stroke-linejoin="round"/>
<path id="Vector_19" d="M14.9941,14.9945c1.3802,0 2.499,-1.119 2.499,-2.499c0,-1.381 -1.1188,-2.499 -2.499,-2.499c-1.3802,0 -2.499,1.118 -2.499,2.499c0,1.38 1.1188,2.499 2.499,2.499z" stroke="#D1D5DB" stroke-width="1.66602" stroke-linecap="round" stroke-linejoin="round"/>
<path id="Vector_20" d="M7.497,9.1635c1.8402,0 3.332,-1.492 3.332,-3.332c0,-1.841 -1.4918,-3.332 -3.332,-3.332c-1.8402,0 -3.332,1.491 -3.332,3.332c0,1.84 1.4918,3.332 3.332,3.332z" stroke="#D1D5DB" stroke-width="1.66602" stroke-linecap="round" stroke-linejoin="round"/>
</g></svg>