<svg viewBox="0 0 19.9922 19.9922" fill="none" xmlns="http://www.w3.org/2000/svg" x="0" y="0"><defs><clipPath id="clip3_37_11">
<rect width="19.9922" height="19.9922" fill="white" transform="translate(-0.00010000000000331966, -0.00010000000000331966)"/>
</clipPath></defs><g id="Icon_4" clip-path="url(#clip3_37_11)">
<path id="Vector_21" d="M13.3281,17.4929v-1.666c0,-0.884 -0.3511,-1.731 -0.976,-2.356c-0.6248,-0.625 -1.4724,-0.976 -2.3561,-0.976h-4.998c-0.8837,0 -1.7312,0.351 -2.3561,0.976c-0.6249,0.625 -0.9759,1.472 -0.9759,2.356v1.666" stroke="#D1D5DB" stroke-width="1.66602" stroke-linecap="round" stroke-linejoin="round"/>
<path id="Vector_22" d="M13.3281,2.6059c0.7145,0.185 1.3473,0.602 1.799,1.186c0.4517,0.584 0.6968,1.301 0.6968,2.039c0,0.738 -0.2451,1.455 -0.6968,2.039c-0.4517,0.584 -1.0845,1.001 -1.799,1.187" stroke="#D1D5DB" stroke-width="1.66602" stroke-linecap="round" stroke-linejoin="round"/>
<path id="Vector_23" d="M18.3261,17.4929v-1.666c-0.0005,-0.738 -0.2463,-1.455 -0.6986,-2.039c-0.4523,-0.583 -1.0856,-1 -1.8004,-1.185" stroke="#D1D5DB" stroke-width="1.66602" stroke-linecap="round" stroke-linejoin="round"/>
<path id="Vector_24" d="M7.497,9.1629c1.8402,0 3.332,-1.492 3.332,-3.332c0,-1.84 -1.4918,-3.332 -3.332,-3.332c-1.8402,0 -3.332,1.492 -3.332,3.332c0,1.84 1.4918,3.332 3.332,3.332z" stroke="#D1D5DB" stroke-width="1.66602" stroke-linecap="round" stroke-linejoin="round"/>
</g></svg>