<svg viewBox="0 0 19.9922 19.9922" fill="none" xmlns="http://www.w3.org/2000/svg" x="0" y="0"><defs><clipPath id="clip4_37_11">
<rect width="19.9922" height="19.9922" fill="white" transform="translate(-0.00010000000000331966, -0.0002000000000066393)"/>
</clipPath></defs><g id="Icon_6" clip-path="url(#clip4_37_11)">
<path id="Vector_28" d="M8.056,3.4448c0.0459,-0.482 0.2701,-0.931 0.629,-1.257c0.3588,-0.326 0.8264,-0.507 1.3115,-0.507c0.485,0 0.9526,0.181 1.3114,0.507c0.3589,0.326 0.5832,0.775 0.629,1.257c0.0276,0.312 0.13,0.613 0.2984,0.877c0.1684,0.264 0.3979,0.484 0.6692,0.64c0.2712,0.157 0.5761,0.245 0.889,0.259c0.3128,0.014 0.6243,-0.048 0.9082,-0.18c0.4408,-0.2 0.9402,-0.229 1.4011,-0.082c0.4609,0.148 0.8504,0.462 1.0925,0.881c0.2422,0.42 0.3197,0.914 0.2175,1.387c-0.1021,0.473 -0.3767,0.891 -0.7702,1.173c-0.2562,0.18 -0.4654,0.419 -0.6098,0.697c-0.1444,0.277 -0.2198,0.586 -0.2198,0.899c0,0.313 0.0754,0.621 0.2198,0.899c0.1444,0.278 0.3536,0.517 0.6098,0.696c0.3935,0.282 0.6681,0.701 0.7702,1.174c0.1022,0.473 0.0247,0.967 -0.2175,1.386c-0.2421,0.419 -0.6316,0.733 -1.0925,0.881c-0.4609,0.148 -0.9603,0.119 -1.4011,-0.081c-0.2839,-0.132 -0.5954,-0.194 -0.9082,-0.18c-0.3129,0.013 -0.6178,0.102 -0.889,0.259c-0.2713,0.156 -0.5008,0.376 -0.6692,0.64c-0.1684,0.264 -0.2708,0.564 -0.2984,0.876c-0.0458,0.483 -0.2701,0.931 -0.629,1.258c-0.3588,0.326 -0.8264,0.507 -1.3114,0.507c-0.4851,0 -0.9527,-0.181 -1.3115,-0.507c-0.3589,-0.327 -0.5831,-0.775 -0.629,-1.258c-0.0276,-0.312 -0.1299,-0.613 -0.2984,-0.877c-0.1684,-0.264 -0.3981,-0.483 -0.6694,-0.64c-0.2713,-0.156 -0.5764,-0.245 -0.8894,-0.259c-0.3129,-0.013 -0.6245,0.049 -0.9084,0.181c-0.4408,0.2 -0.9402,0.229 -1.4011,0.081c-0.461,-0.148 -0.8504,-0.462 -1.0925,-0.881c-0.2422,-0.419 -0.3197,-0.913 -0.2176,-1.386c0.1022,-0.473 0.3768,-0.892 0.7703,-1.174c0.2562,-0.179 0.4654,-0.418 0.6098,-0.696c0.1444,-0.278 0.2198,-0.586 0.2198,-0.899c0,-0.313 -0.0754,-0.622 -0.2198,-0.899c-0.1444,-0.278 -0.3536,-0.517 -0.6098,-0.697c-0.393,-0.282 -0.6671,-0.7 -0.769,-1.173c-0.1019,-0.472 -0.0244,-0.966 0.2175,-1.385c0.2419,-0.419 0.6309,-0.733 1.0913,-0.881c0.4605,-0.148 0.9596,-0.12 1.4002,0.08c0.2839,0.132 0.5954,0.194 0.9083,0.18c0.3128,-0.014 0.6178,-0.102 0.889,-0.259c0.2712,-0.156 0.5008,-0.376 0.6692,-0.64c0.1684,-0.264 0.2707,-0.565 0.2983,-0.877" stroke="#D1D5DB" stroke-width="1.66602" stroke-linecap="round" stroke-linejoin="round"/>
<path id="Vector_29" d="M9.996,12.4948c1.3802,0 2.4991,-1.119 2.4991,-2.499c0,-1.38 -1.1189,-2.499 -2.4991,-2.499c-1.3801,0 -2.499,1.119 -2.499,2.499c0,1.38 1.1189,2.499 2.499,2.499z" stroke="#D1D5DB" stroke-width="1.66602" stroke-linecap="round" stroke-linejoin="round"/>
</g></svg>