<svg viewBox="0 0 19.9922 19.9922" fill="none" xmlns="http://www.w3.org/2000/svg" x="0" y="0"><g id="Icon_10">
<path id="Vector_37" d="M8.5553,17.4931c0.14,0.2533 0.35,0.4636 0.61,0.6098c0.25,0.1462 0.54,0.2232 0.83,0.2232c0.29,0 0.58,-0.077 0.83,-0.2232c0.26,-0.1462 0.47,-0.3565 0.61,-0.6098" stroke="#4B5563" stroke-width="1.66602" stroke-linecap="round" stroke-linejoin="round"/>
<path id="Vector_38" d="M2.7153,12.7666c-0.11,0.1193 -0.18,0.2676 -0.21,0.427c-0.02,0.1593 0,0.3228 0.06,0.4705c0.07,0.1478 0.18,0.2734 0.31,0.3616c0.14,0.0882 0.29,0.1353 0.46,0.1354h13.32c0.17,0 0.32,-0.0468 0.46,-0.1349c0.13,-0.088 0.24,-0.2135 0.31,-0.3612c0.06,-0.1476 0.08,-0.311 0.06,-0.4704c-0.03,-0.1593 -0.1,-0.3077 -0.21,-0.4271c-1.11,-1.1421 -2.28,-2.3558 -2.28,-6.1035c0,-1.3255 -0.53,-2.5968 -1.47,-3.5341c-0.93,-0.9373 -2.2,-1.4639 -3.53,-1.4639c-1.33,0 -2.6,0.5266 -3.53,1.4639c-0.94,0.9373 -1.47,2.2086 -1.47,3.5341c0,3.7477 -1.17,4.9614 -2.28,6.1026z" stroke="#4B5563" stroke-width="1.66602" stroke-linecap="round" stroke-linejoin="round"/>
</g></svg>