<svg viewBox="0 0 19.9922 19.9922" fill="none" xmlns="http://www.w3.org/2000/svg" x="0" y="0"><g id="Icon_22">
<path id="Vector_124" d="M8.0564,3.4434c0.045,-0.48 0.27,-0.93 0.629,-1.26c0.358,-0.32 0.826,-0.5 1.311,-0.5c0.485,0 0.953,0.18 1.312,0.5c0.358,0.33 0.583,0.78 0.629,1.26c0.027,0.31 0.129,0.61 0.298,0.88c0.168,0.26 0.398,0.48 0.669,0.64c0.271,0.15 0.576,0.24 0.889,0.26c0.313,0.01 0.624,-0.05 0.908,-0.18c0.441,-0.2 0.94,-0.23 1.401,-0.08c0.461,0.14 0.851,0.46 1.093,0.88c0.242,0.42 0.32,0.91 0.217,1.38c-0.102,0.48 -0.376,0.89 -0.77,1.18c-0.256,0.18 -0.465,0.42 -0.61,0.69c-0.144,0.28 -0.219,0.59 -0.219,0.9c0,0.32 0.075,0.62 0.219,0.9c0.145,0.28 0.354,0.52 0.61,0.7c0.394,0.28 0.668,0.7 0.77,1.17c0.103,0.47 0.025,0.97 -0.217,1.39c-0.242,0.42 -0.632,0.73 -1.093,0.88c-0.461,0.15 -0.96,0.12 -1.401,-0.08c-0.284,-0.13 -0.595,-0.2 -0.908,-0.18c-0.313,0.01 -0.618,0.1 -0.889,0.26c-0.271,0.15 -0.501,0.37 -0.669,0.64c-0.169,0.26 -0.271,0.56 -0.298,0.87c-0.046,0.49 -0.271,0.93 -0.629,1.26c-0.359,0.33 -0.827,0.51 -1.312,0.51c-0.485,0 -0.953,-0.18 -1.311,-0.51c-0.359,-0.33 -0.584,-0.77 -0.629,-1.26c-0.028,-0.31 -0.13,-0.61 -0.299,-0.87c-0.168,-0.27 -0.398,-0.49 -0.669,-0.64c-0.272,-0.16 -0.577,-0.25 -0.89,-0.26c-0.313,-0.02 -0.624,0.04 -0.908,0.18c-0.441,0.2 -0.94,0.23 -1.401,0.08c-0.461,-0.15 -0.851,-0.46 -1.093,-0.88c-0.242,-0.42 -0.319,-0.92 -0.217,-1.39c0.102,-0.47 0.377,-0.89 0.77,-1.17c0.256,-0.18 0.465,-0.42 0.61,-0.7c0.144,-0.28 0.22,-0.58 0.22,-0.9c0,-0.31 -0.076,-0.62 -0.22,-0.9c-0.145,-0.27 -0.354,-0.51 -0.61,-0.69c-0.393,-0.29 -0.667,-0.7 -0.769,-1.18c-0.102,-0.47 -0.024,-0.96 0.218,-1.38c0.241,-0.42 0.63,-0.73 1.091,-0.88c0.46,-0.15 0.959,-0.12 1.4,0.08c0.284,0.13 0.596,0.19 0.908,0.18c0.313,-0.02 0.618,-0.11 0.889,-0.26c0.272,-0.16 0.501,-0.38 0.67,-0.64c0.168,-0.27 0.27,-0.57 0.298,-0.88" stroke="#EA580C" stroke-width="1.66602" stroke-linecap="round" stroke-linejoin="round"/>
<path id="Vector_125" d="M9.9964,12.4934c1.38,0 2.499,-1.12 2.499,-2.5c0,-1.38 -1.119,-2.5 -2.499,-2.5c-1.381,0 -2.499,1.12 -2.499,2.5c0,1.38 1.118,2.5 2.499,2.5z" stroke="#EA580C" stroke-width="1.66602" stroke-linecap="round" stroke-linejoin="round"/>
</g></svg>