<svg viewBox="0 0 19.9922 19.9922" fill="none" xmlns="http://www.w3.org/2000/svg" x="0" y="0"><g id="Icon_19">
<path id="Vector_106" d="M8.3304,12.4931h-3.332c-0.884,0 -1.732,0.35 -2.357,0.98c-0.624,0.62 -0.975,1.47 -0.975,2.35v1.67" stroke="#2563EB" stroke-width="1.66602" stroke-linecap="round" stroke-linejoin="round"/>
<path id="Vector_107" d="M11.9164,13.7731l0.769,-0.32" stroke="#2563EB" stroke-width="1.66602" stroke-linecap="round" stroke-linejoin="round"/>
<path id="Vector_108" d="M12.6854,11.5431l-0.769,-0.32" stroke="#2563EB" stroke-width="1.66602" stroke-linecap="round" stroke-linejoin="round"/>
<path id="Vector_109" d="M14.0374,10.1831l-0.319,-0.77" stroke="#2563EB" stroke-width="1.66602" stroke-linecap="round" stroke-linejoin="round"/>
<path id="Vector_110" d="M14.0374,14.8031l-0.319,0.77" stroke="#2563EB" stroke-width="1.66602" stroke-linecap="round" stroke-linejoin="round"/>
<path id="Vector_111" d="M15.9504,10.1831l0.319,-0.77" stroke="#2563EB" stroke-width="1.66602" stroke-linecap="round" stroke-linejoin="round"/>
<path id="Vector_112" d="M16.2684,15.5731l-0.318,-0.77" stroke="#2563EB" stroke-width="1.66602" stroke-linecap="round" stroke-linejoin="round"/>
<path id="Vector_113" d="M17.3034,11.5431l0.769,-0.32" stroke="#2563EB" stroke-width="1.66602" stroke-linecap="round" stroke-linejoin="round"/>
<path id="Vector_114" d="M17.3034,13.4531l0.769,0.32" stroke="#2563EB" stroke-width="1.66602" stroke-linecap="round" stroke-linejoin="round"/>
<path id="Vector_115" d="M14.9944,14.9931c1.38,0 2.499,-1.12 2.499,-2.5c0,-1.38 -1.119,-2.5 -2.499,-2.5c-1.381,0 -2.499,1.12 -2.499,2.5c0,1.38 1.118,2.5 2.499,2.5z" stroke="#2563EB" stroke-width="1.66602" stroke-linecap="round" stroke-linejoin="round"/>
<path id="Vector_116" d="M7.4974,9.1631c1.84,0 3.332,-1.49 3.332,-3.33c0,-1.84 -1.492,-3.33 -3.332,-3.33c-1.841,0 -3.332,1.49 -3.332,3.33c0,1.84 1.491,3.33 3.332,3.33z" stroke="#2563EB" stroke-width="1.66602" stroke-linecap="round" stroke-linejoin="round"/>
</g></svg>