<svg viewBox="0 0 19.9922 19.9922" fill="none" xmlns="http://www.w3.org/2000/svg" x="0" y="0"><g id="Icon_20">
<path id="Vector_117" d="M13.3294,17.4931v-1.67c0,-0.88 -0.35,-1.73 -0.98,-2.35c-0.62,-0.63 -1.47,-0.98 -2.35,-0.98h-5c-0.89,0 -1.73,0.35 -2.36,0.98c-0.62,0.62 -0.97,1.47 -0.97,2.35v1.67" stroke="#16A34A" stroke-width="1.66602" stroke-linecap="round" stroke-linejoin="round"/>
<path id="Vector_118" d="M13.3294,2.6031c0.71,0.19 1.35,0.6 1.8,1.19c0.45,0.58 0.69,1.3 0.69,2.04c0,0.74 -0.24,1.45 -0.69,2.04c-0.45,0.58 -1.09,1 -1.8,1.18" stroke="#16A34A" stroke-width="1.66602" stroke-linecap="round" stroke-linejoin="round"/>
<path id="Vector_119" d="M18.3294,17.4931v-1.67c0,-0.73 -0.25,-1.45 -0.7,-2.04c-0.45,-0.58 -1.09,-1 -1.8,-1.18" stroke="#16A34A" stroke-width="1.66602" stroke-linecap="round" stroke-linejoin="round"/>
<path id="Vector_120" d="M7.4994,9.1631c1.84,0 3.33,-1.49 3.33,-3.33c0,-1.84 -1.49,-3.33 -3.33,-3.33c-1.84,0 -3.33,1.49 -3.33,3.33c0,1.84 1.49,3.33 3.33,3.33z" stroke="#16A34A" stroke-width="1.66602" stroke-linecap="round" stroke-linejoin="round"/>
</g></svg>