<svg viewBox="0 0 24 24" fill="none" xmlns="http://www.w3.org/2000/svg" x="0" y="0"><g id="Icon_11">
<path id="Vector_39" d="M16.0004,20.9999v-2c0,-1.061 -0.422,-2.078 -1.172,-2.828c-0.75,-0.751 -1.768,-1.172 -2.828,-1.172h-6c-1.061,0 -2.079,0.421 -2.829,1.172c-0.75,0.75 -1.171,1.767 -1.171,2.828v2" stroke="#2563EB" stroke-width="2" stroke-linecap="round" stroke-linejoin="round"/>
<path id="Vector_40" d="M16.0004,3.1279c0.857,0.222 1.617,0.723 2.159,1.424c0.542,0.701 0.837,1.562 0.837,2.448c0,0.886 -0.295,1.747 -0.837,2.448c-0.542,0.701 -1.302,1.202 -2.159,1.424" stroke="#2563EB" stroke-width="2" stroke-linecap="round" stroke-linejoin="round"/>
<path id="Vector_41" d="M22.0004,20.9999v-2c-0.001,-0.886 -0.296,-1.747 -0.839,-2.448c-0.543,-0.7 -1.303,-1.2 -2.161,-1.422" stroke="#2563EB" stroke-width="2" stroke-linecap="round" stroke-linejoin="round"/>
<path id="Vector_42" d="M9.0004,10.9999c2.209,0 4,-1.791 4,-4c0,-2.209 -1.791,-4 -4,-4c-2.21,0 -4,1.791 -4,4c0,2.209 1.79,4 4,4z" stroke="#2563EB" stroke-width="2" stroke-linecap="round" stroke-linejoin="round"/>
</g></svg>