<svg viewBox="0 0 24 24" fill="none" xmlns="http://www.w3.org/2000/svg" x="0" y="0"><g id="Icon_13">
<path id="Vector_47" d="M9.9978,14.9999h-4c-1.06,0 -2.08,0.421 -2.83,1.172c-0.75,0.75 -1.17,1.767 -1.17,2.828v2" stroke="#9333EA" stroke-width="2" stroke-linecap="round" stroke-linejoin="round"/>
<path id="Vector_48" d="M14.3078,16.5299l0.92,-0.382" stroke="#9333EA" stroke-width="2" stroke-linecap="round" stroke-linejoin="round"/>
<path id="Vector_49" d="M15.2278,13.8519l-0.92,-0.383" stroke="#9333EA" stroke-width="2" stroke-linecap="round" stroke-linejoin="round"/>
<path id="Vector_50" d="M16.8478,12.2279l-0.38,-0.923" stroke="#9333EA" stroke-width="2" stroke-linecap="round" stroke-linejoin="round"/>
<path id="Vector_51" d="M16.8478,17.7719l-0.38,0.924" stroke="#9333EA" stroke-width="2" stroke-linecap="round" stroke-linejoin="round"/>
<path id="Vector_52" d="M19.1478,12.2279l0.38,-0.923" stroke="#9333EA" stroke-width="2" stroke-linecap="round" stroke-linejoin="round"/>
<path id="Vector_53" d="M19.5278,18.6959l-0.38,-0.924" stroke="#9333EA" stroke-width="2" stroke-linecap="round" stroke-linejoin="round"/>
<path id="Vector_54" d="M20.7678,13.8519l0.93,-0.383" stroke="#9333EA" stroke-width="2" stroke-linecap="round" stroke-linejoin="round"/>
<path id="Vector_55" d="M20.7678,16.1479l0.93,0.383" stroke="#9333EA" stroke-width="2" stroke-linecap="round" stroke-linejoin="round"/>
<path id="Vector_56" d="M17.9978,17.9999c1.66,0 3,-1.343 3,-3c0,-1.657 -1.34,-3 -3,-3c-1.65,0 -3,1.343 -3,3c0,1.657 1.35,3 3,3z" stroke="#9333EA" stroke-width="2" stroke-linecap="round" stroke-linejoin="round"/>
<path id="Vector_57" d="M8.9978,10.9999c2.21,0 4,-1.791 4,-4c0,-2.209 -1.79,-4 -4,-4c-2.21,0 -4,1.791 -4,4c0,2.209 1.79,4 4,4z" stroke="#9333EA" stroke-width="2" stroke-linecap="round" stroke-linejoin="round"/>
</g></svg>